HIERARCHY
ROOT Hips
{
	OFFSET -0.001795 -0.223333 0.028219
	CHANNELS 6 Xposition Yposition Zposition Zrotation Yrotation Xrotation 
	JOINT LeftUpLeg
	{
		OFFSET 0.069520 -0.091406 -0.006815
		CHANNELS 3 Zrotation Yrotation Xrotation
		JOINT LeftLeg
		{
			OFFSET 0.034277 -0.375199 -0.004496
			CHANNELS 3 Zrotation Yrotation Xrotation
			JOINT LeftFoot
			{
				OFFSET -0.013596 -0.397961 -0.043693
				CHANNELS 3 Zrotation Yrotation Xrotation
				JOINT LeftToe
				{
					OFFSET 0.026358 -0.055791 0.119288
					CHANNELS 3 Zrotation Yrotation Xrotation
					End Site
					{
						OFFSET 0.000000 0.000000 0.000000
					}
				}
			}
		}
	}
	JOINT RightUpLeg
	{
		OFFSET -0.067670 -0.090522 -0.004320
		CHANNELS 3 Zrotation Yrotation Xrotation
		JOINT RightLeg
		{
			OFFSET -0.038290 -0.382569 -0.008850
			CHANNELS 3 Zrotation Yrotation Xrotation
			JOINT RightFoot
			{
				OFFSET 0.015774 -0.398415 -0.042312
				CHANNELS 3 Zrotation Yrotation Xrotation
				JOINT RightToe
				{
					OFFSET -0.025372 -0.048144 0.123348
					CHANNELS 3 Zrotation Yrotation Xrotation
					End Site
					{
						OFFSET 0.000000 0.000000 0.000000
					}
				}
			}
		}
	}
	JOINT Spine
	{
		OFFSET -0.002533 0.108963 -0.026696
		CHANNELS 3 Zrotation Yrotation Xrotation
		JOINT Spine1
		{
			OFFSET 0.005487 0.135180 0.001092
			CHANNELS 3 Zrotation Yrotation Xrotation
			JOINT Spine2
			{
				OFFSET 0.001457 0.052922 0.025425
				CHANNELS 3 Zrotation Yrotation Xrotation
				JOINT Neck
				{
					OFFSET -0.002778 0.213870 -0.042857
					CHANNELS 3 Zrotation Yrotation Xrotation
					JOINT Head
					{
						OFFSET 0.005152 0.064970 0.051349
						CHANNELS 3 Zrotation Yrotation Xrotation
						End Site
						{
							OFFSET 0.000000 0.000000 0.000000
						}
					}
				}
				JOINT LeftShoulder
				{
					OFFSET 0.078845 0.121749 -0.034090
					CHANNELS 3 Zrotation Yrotation Xrotation
					JOINT LeftArm
					{
						OFFSET 0.090977 0.030469 -0.008868
						CHANNELS 3 Zrotation Yrotation Xrotation
						JOINT LeftForeArm
						{
							OFFSET 0.259612 -0.012772 -0.027456
							CHANNELS 3 Zrotation Yrotation Xrotation
							JOINT LeftHand
							{
								OFFSET 0.249234 0.008986 -0.001171
								CHANNELS 3 Zrotation Yrotation Xrotation
								End Site
								{
									OFFSET 0.000000 0.000000 0.000000
								}
							}
						}
					}
				}
				JOINT RightShoulder
				{
					OFFSET -0.081759 0.118833 -0.038615
					CHANNELS 3 Zrotation Yrotation Xrotation
					JOINT RightArm
					{
						OFFSET -0.096012 0.032551 -0.009143
						CHANNELS 3 Zrotation Yrotation Xrotation
						JOINT RightForeArm
						{
							OFFSET -0.253742 -0.013329 -0.021401
							CHANNELS 3 Zrotation Yrotation Xrotation
							JOINT RightHand
							{
								OFFSET -0.255298 0.007772 -0.005559
								CHANNELS 3 Zrotation Yrotation Xrotation
								End Site
								{
									OFFSET 0.000000 0.000000 0.000000
								}
							}
						}
					}
				}
			}
		}
	}
}
MOTION
Frames: 12
Frame Time: 0.050000
0.000000 0.945459 0.000000 0.714318 0.677273 2.443998 4.568532 0.061599 2.933829 -4.346484 0.433618 -7.336955 3.511963 9.705144 8.895095 0.000000 0.000000 0.000000 -4.124860 0.026591 1.341778 3.944306 -0.439766 -3.877265 -3.608639 -11.013673 8.253902 0.000000 0.000000 0.000000 -2.051131 0.041624 -0.424475 4.322362 -0.725074 -19.168741 -0.558135 -0.374861 28.539332 -0.919004 2.208389 -28.481972 0.000000 0.000000 0.000000 -37.864070 -2.741771 -0.680711 -44.840190 -4.949016 -5.655423 1.987840 -26.535550 0.945195 0.000000 0.000000 0.000000 30.102523 8.592300 3.926911 49.033942 5.360598 -4.949812 -7.143134 24.070700 -0.281039 0.000000 0.000000 0.000000 
0.002147 0.944643 -0.000874 0.724473 -0.067625 3.224208 4.665836 0.052944 2.827082 -4.770822 0.455741 -8.118233 3.782157 10.052131 8.619875 0.000000 0.000000 0.000000 -4.626716 0.155366 -0.209476 4.405367 -0.462861 -2.760523 -3.610657 -10.952634 7.688954 0.000000 0.000000 0.000000 -2.281839 0.086131 -2.109274 4.558270 -0.831944 -18.741168 -0.833094 1.003179 28.920286 0.220059 1.744075 -28.460397 0.000000 0.000000 0.000000 -36.808315 -2.337258 -1.338595 -46.389939 -4.543330 -5.870960 2.302306 -27.187717 0.898673 0.000000 0.000000 0.000000 29.797238 7.704103 3.754690 50.610769 5.456130 -5.190732 -6.932897 26.306110 -0.178231 0.000000 0.000000 0.000000 
0.004518 0.944496 -0.001782 0.850262 0.325081 3.644146 4.525076 -0.005624 1.750890 -5.257428 0.481972 -6.847039 4.322039 10.989639 8.588847 0.000000 0.000000 0.000000 -4.869766 0.194023 -0.751501 4.415063 -0.467455 -2.772059 -3.862258 -11.635952 8.736272 0.000000 0.000000 0.000000 -1.841502 0.106696 -2.899788 3.655478 -0.542938 -19.039117 -0.847882 0.205626 29.902032 -0.099836 1.818536 -28.494629 0.000000 0.000000 0.000000 -35.732723 -2.300111 -0.927738 -46.835563 -4.943870 -5.961317 2.514668 -26.794541 0.876537 0.000000 0.000000 0.000000 29.546136 8.861916 4.311376 50.656847 5.466919 -5.181062 -6.633031 25.776985 -0.150479 0.000000 0.000000 0.000000 
0.006948 0.944571 -0.002402 1.122442 -0.004448 3.874151 4.148855 -0.003251 1.515509 -5.453441 0.498029 -6.741379 4.592632 11.324056 8.009080 0.000000 0.000000 0.000000 -5.327848 0.250057 -1.477085 4.648499 -0.482639 -2.466033 -4.100803 -12.173227 8.953315 0.000000 0.000000 0.000000 -2.180238 0.119147 -3.465553 4.010976 -0.634198 -19.309092 -0.856248 0.416858 30.221364 -0.321878 1.942674 -28.461496 0.000000 0.000000 0.000000 -36.338299 -2.110053 -1.117019 -46.822498 -3.875083 -6.342458 2.289845 -28.179187 0.996004 0.000000 0.000000 0.000000 29.788148 8.934934 4.389731 50.726883 4.669352 -5.523899 -6.820450 27.580424 -0.183723 0.000000 0.000000 0.000000 
0.009458 0.945284 -0.002706 1.011515 0.153901 3.753518 4.024648 -0.000993 1.487896 -5.314720 0.491566 -6.504766 4.643335 11.460754 8.232649 0.000000 0.000000 0.000000 -5.263533 0.229276 -1.174550 4.159954 -0.444306 -2.616132 -3.859719 -11.751768 9.323464 0.000000 0.000000 0.000000 -1.880316 0.121419 -3.490250 4.094749 -0.678708 -18.940296 -1.119426 0.258118 29.902649 -0.364262 1.965277 -28.617051 0.000000 0.000000 0.000000 -35.945272 -1.891544 -1.236623 -47.296217 -3.354472 -6.561505 1.992369 -28.711851 1.096331 0.000000 0.000000 0.000000 30.295990 9.067379 4.441341 50.297873 4.746811 -5.402054 -6.894932 28.042202 -0.215911 0.000000 0.000000 0.000000 
0.012086 0.945899 -0.002737 1.111189 -0.040988 3.636861 3.544162 0.038655 1.829988 -4.978484 0.476219 -6.660273 4.662453 11.474851 8.184153 0.000000 0.000000 0.000000 -5.690763 0.239230 -1.172781 4.194601 -0.444609 -2.398595 -3.793342 -11.632374 9.299191 0.000000 0.000000 0.000000 -1.976528 0.120084 -3.480856 4.065911 -0.652733 -19.293330 -0.901865 0.181551 30.123794 -0.461471 1.993226 -28.839728 0.000000 0.000000 0.000000 -35.592784 -1.662306 -1.250770 -47.747345 -3.197679 -6.733475 1.474213 -28.823176 1.254290 0.000000 0.000000 0.000000 30.183759 8.963470 4.288818 50.397216 4.737904 -5.415563 -6.330249 28.703916 -0.091680 0.000000 0.000000 0.000000 
0.014672 0.946287 -0.002776 1.019491 -0.185966 3.516304 3.555624 0.049293 1.975813 -5.076018 0.483015 -6.678705 4.776270 11.733868 8.600160 0.000000 0.000000 0.000000 -5.703440 0.238505 -1.149300 3.894179 -0.417329 -2.163506 -3.512181 -11.083622 9.247533 0.000000 0.000000 0.000000 -1.743858 0.118081 -3.311466 4.102012 -0.659981 -19.395196 -1.078796 -0.033167 30.059000 -0.364251 1.880643 -28.701800 0.000000 0.000000 0.000000 -35.917234 -1.347770 -1.348325 -47.607513 -3.009707 -6.833432 1.574251 -28.762534 1.247056 0.000000 0.000000 0.000000 30.443820 9.082117 4.220315 50.025003 4.811799 -5.302465 -6.179708 29.105408 -0.080675 0.000000 0.000000 0.000000 
0.017297 0.946497 -0.003005 0.902422 -0.476556 3.426201 3.525381 0.057637 2.040446 -5.220375 0.494858 -6.701280 4.975613 12.012638 8.332111 0.000000 0.000000 0.000000 -5.817831 0.248485 -1.246825 3.933210 -0.416388 -1.848763 -3.321837 -10.661153 8.911777 0.000000 0.000000 0.000000 -1.597626 0.113468 -3.061398 3.977976 -0.616311 -19.670957 -0.939515 -0.116714 30.026395 -0.379328 1.860374 -29.038366 0.000000 0.000000 0.000000 -35.884596 -1.423094 -1.144134 -47.382759 -3.015618 -6.846032 1.550082 -28.612621 1.253566 0.000000 0.000000 0.000000 30.457596 9.010360 4.048328 49.756997 4.807751 -5.250267 -5.547262 29.232934 0.050752 0.000000 0.000000 0.000000 
0.019939 0.946462 -0.003382 0.814355 -0.750001 3.335147 3.655257 0.064919 2.185596 -5.555999 0.514362 -6.845933 5.079568 12.156947 8.225027 0.000000 0.000000 0.000000 -5.997142 0.258995 -1.337332 3.978132 -0.417021 -1.655456 -3.040965 -10.091425 8.759460 0.000000 0.000000 0.000000 -1.443158 0.112083 -2.961733 4.025027 -0.637979 -19.628153 -0.901271 -0.185945 29.874511 -0.290534 1.780552 -29.222640 0.000000 0.000000 0.000000 -35.882277 -1.508293 -0.948807 -47.351433 -3.311797 -6.764777 1.813565 -28.451065 1.191779 0.000000 0.000000 0.000000 30.506662 9.175831 4.029068 49.465991 4.946041 -5.116328 -5.517409 29.149720 0.032992 0.000000 0.000000 0.000000 
0.022717 0.946325 -0.003740 0.563448 -0.908598 3.303852 3.708267 0.072482 2.316747 -5.670551 0.520682 -7.005566 5.162051 12.272406 8.105888 0.000000 0.000000 0.000000 -6.138409 0.268166 -1.433173 4.175964 -0.432838 -1.588702 -2.931277 -9.906429 8.845623 0.000000 0.000000 0.000000 -1.148487 0.109208 -2.787730 3.926408 -0.610877 -19.694187 -0.873471 -0.205421 29.673577 -0.168904 1.714551 -29.582780 0.000000 0.000000 0.000000 -35.689613 -1.674553 -0.753973 -47.297539 -3.466893 -6.704573 1.772520 -28.168218 1.185394 0.000000 0.000000 0.000000 30.555401 9.131520 3.935343 49.477220 4.976355 -5.072823 -5.449530 29.090834 0.040857 0.000000 0.000000 0.000000 
0.025856 0.946127 -0.003855 0.405791 -0.905426 3.326830 3.843449 0.072306 2.407131 -5.759867 0.518659 -7.413874 5.279812 12.491058 8.218892 0.000000 0.000000 0.000000 -6.269330 0.269042 -1.385066 4.312224 -0.445029 -1.630562 -2.850822 -9.762692 8.919568 0.000000 0.000000 0.000000 -1.083226 0.110052 -2.796146 4.020431 -0.641911 -19.619981 -0.949236 -0.355531 29.512573 0.004594 1.613841 -29.875623 0.000000 0.000000 0.000000 -35.667663 -1.772428 -0.615705 -46.980092 -3.495501 -6.661751 1.656502 -28.302096 1.217119 0.000000 0.000000 0.000000 30.558268 9.161117 3.878200 49.367119 5.152606 -4.958003 -5.549193 28.838554 0.003521 0.000000 0.000000 0.000000 
0.029606 0.945908 -0.003807 0.197300 -0.935320 3.412234 3.957917 0.069525 2.448571 -5.741778 0.516176 -7.531998 5.442498 12.768433 8.231156 0.000000 0.000000 0.000000 -6.248588 0.275150 -1.492425 4.372965 -0.450004 -1.608225 -2.792887 -9.683315 9.059103 0.000000 0.000000 0.000000 -1.017455 0.104779 -2.606913 4.158005 -0.671786 -19.763226 -1.056426 -0.421753 29.313345 0.270513 1.486005 -30.339003 0.000000 0.000000 0.000000 -35.806087 -1.792801 -0.583778 -46.426892 -3.352606 -6.637605 1.165363 -28.673073 1.347324 0.000000 0.000000 0.000000 30.655450 9.127231 3.812160 49.226932 5.046038 -4.960529 -5.655249 28.656552 -0.029292 0.000000 0.000000 0.000000 
